# xmcd
#
# Track frame offsets:
# 150
# 12993
# 26158
# 38236
# 55187
# 63467
# 80498
# 100907
# 115079
# 121929
# 131828
# 142029
# 153884
# 168457
# 176871
# 190977
# 197688
# 211143
# 220745
# 231079
# 239908
# 258270
# 268190
# 281729
#
# Disc length: 3872 seconds
#
#
# Revision: 0
# Processed by: cddbd v1.5.2PL0 Copyright (c) Steve Scherf et al.
# Submitted via: FreeRIP 2.951 
#
DISCID=6b0f1e18
DTITLE=Ben and Brian - Silent Knights
DYEAR=2005
DGENRE=Country
TTITLE0=Feliz Navidad - The Many Voices of Ben
TTITLE1=Larry The Cable Guy
TTITLE2=Paul Revere's Ride - President Bush
TTITLE3=Craig Morgan Live - That's What I Love About Sunday
TTITLE4=Friskies Lullaby - Ben and Brian Band
TTITLE5=Ronnie Dunn - April Fools!!
TTITLE6=Stump Steve Spurrier
TTITLE7=Jamie O'Neal Live - Trying To Find Atlantis
TTITLE8=The Suddenly Signle Tour - Kenny Chesney
TTITLE9=D.C. Benny
TTITLE10=Burl Ives - Holly Jolly Christmas
TTITLE11=Slip 'N' Slide - President Bush and Arnold
TTITLE12=Enormous Omelette Sandwich
TTITLE13=Pepto Bismol - Ben and Brian Band
TTITLE14=Mr. Mom - Iron Mike Tyson
TTITLE15=Reunion Makeover
TTITLE16=Chely Wright and Shooter Jennigs Live - Tonight The Bottle Let Me Down
TTITLE17=Brenda Lee - Rockin' Around The Christmas Tree
TTITLE18=A Lot Of Learnin' Left To Do - Ben and Brian Band
TTITLE19=All Apologies - President Bush
TTITLE20=Tracey Lawrence Live - Paint Me A Birmingham
TTITLE21=Bobby Helms - Jingle Bell Rock
TTITLE22=Brad Paisley - Fast and Furious
TTITLE23=Brad Paisley Live - Silent Night
EXTD=
EXTT0=
EXTT1=
EXTT2=
EXTT3=
EXTT4=
EXTT5=
EXTT6=
EXTT7=
EXTT8=
EXTT9=
EXTT10=
EXTT11=
EXTT12=
EXTT13=
EXTT14=
EXTT15=
EXTT16=
EXTT17=
EXTT18=
EXTT19=
EXTT20=
EXTT21=
EXTT22=
EXTT23=
PLAYORDER=
